<svg xmlns="http://www.w3.org/2000/svg" width="3760" height="2220" viewBox="0 0 1880 1110" font-family="Arial, sans-serif" fill="#202020">
<title>DeepScientist — editable manual vector redraw of AutoFigure case 11</title>
<desc>Hand-authored by Codex from the user-provided reference image. Colored pictograms are simplified original vectors. This is not output from the automatic reconstruction request, which timed out without response headers. Thirty logical relation requirements and the original overview/detail structure guided this drawing. No segmentation API, image generation or remote resources are used.</desc>

<defs>
<marker id="arrow-black" viewBox="0 0 12 12" refX="10" refY="6" markerWidth="12" markerHeight="12" markerUnits="userSpaceOnUse" orient="auto"><path d="M1 1L11 6L1 11L4 6Z" fill="#222"/></marker><marker id="arrow-gray" viewBox="0 0 12 12" refX="10" refY="6" markerWidth="12" markerHeight="12" markerUnits="userSpaceOnUse" orient="auto"><path d="M1 1L11 6L1 11L4 6Z" fill="#b6b6b6"/></marker><marker id="arrow-pink" viewBox="0 0 12 12" refX="10" refY="6" markerWidth="12" markerHeight="12" markerUnits="userSpaceOnUse" orient="auto"><path d="M1 1L11 6L1 11L4 6Z" fill="#dca1a9"/></marker><marker id="arrow-green" viewBox="0 0 12 12" refX="10" refY="6" markerWidth="12" markerHeight="12" markerUnits="userSpaceOnUse" orient="auto"><path d="M1 1L11 6L1 11L4 6Z" fill="#91bfaa"/></marker>
<g id="brain" fill="#e996a6" stroke="#292c30" stroke-width="2.4" stroke-linejoin="round"><path d="M30 4C20 0 13 8 13 15C4 13 0 22 5 30C0 34 4 46 12 47C8 57 20 62 29 57L31 18Z"/><path d="M34 5C42 0 51 7 51 15C60 13 64 22 59 30C64 35 60 46 52 47C56 58 43 62 35 57L33 17Z"/><path d="M12 24Q23 18 25 27M8 39Q21 35 23 45M20 12L25 16M43 14L46 20M42 29Q53 26 55 33M43 44L47 51" fill="none"/></g>
<g id="thought" stroke="#263b43" stroke-width="2"><path d="M6 28C6 9 25 0 43 5C64 11 69 32 56 47C49 57 28 56 17 51L4 56L8 45C5 39 4 33 6 28Z" fill="#a4ddeb"/><use href="#brain" transform="translate(15 13) scale(0.65)"/></g>
<g id="scientist" stroke="#292929" stroke-width="2.4" stroke-linejoin="miter">
<path d="M18 17L28 8L64 8L78 18L80 54L68 70L29 70L14 51Z" fill="#72553e"/>
<path d="M22 35L34 25L49 28L65 21L74 36L72 62L59 75L36 75L22 62Z" fill="#efbe85"/><rect x="14" y="42" width="9" height="18" fill="#efbe85"/><rect x="73" y="42" width="8" height="18" fill="#efbe85"/>
<rect x="32" y="43" width="7" height="9" fill="#242424" stroke="none"/><rect x="58" y="43" width="7" height="9" fill="#242424" stroke="none"/><path d="M42 64H55"/>
<path d="M25 77L37 74L58 74L72 79L80 88L79 129L67 129L67 155L52 155L49 120L44 120L42 155L27 155L27 129L15 129L15 89Z" fill="#e9f3f4"/>
<path d="M38 77L43 108L49 116L57 79" fill="#89b3c4"/><path d="M30 80L26 118M65 80L68 118" fill="none" stroke="#9fc3ce" stroke-width="5"/>
<path d="M27 123H44V156H27ZM52 123H67V156H52Z" fill="#465969"/>
<rect x="14" y="119" width="12" height="12" fill="#efbe85"/><rect x="68" y="119" width="12" height="12" fill="#efbe85"/>
<path d="M26 152H43V159H25ZM52 152H69V159H52Z" fill="#353535"/>
</g>
<g id="agent" stroke="#222" stroke-width="2.5" stroke-linejoin="miter">
<path d="M12 17L24 5L60 4L76 18L82 40L71 64H23L8 42Z" fill="#353636"/>
<path d="M20 34L35 22L44 28L58 19L72 34L69 58L58 69H32L19 55Z" fill="#e9b97f"/><rect x="28" y="35" width="6" height="9" fill="#222" stroke="none"/><rect x="57" y="35" width="6" height="9" fill="#222" stroke="none"/>
<path d="M22 69L36 65L56 65L69 70L75 88V112H15V87Z" fill="currentColor"/><path d="M36 68L44 78L55 67" fill="none" stroke="#d9e4dc" stroke-width="4"/>
<path d="M15 90H24V116H15ZM66 91H75V116H66Z" fill="#e9b97f"/><path d="M26 112H66V147H51V123H42V147H26Z" fill="#353636"/>
<path d="M26 146H42V153H25ZM51 146H67V153H51Z" fill="#252626"/>
</g>
<g id="profile" stroke="#292c30" stroke-width="2.3"><path d="M0 0H36L48 12V63H0Z" fill="#f2e5b5"/><path d="M36 0V13H48" fill="#fff1c8"/><circle cx="23" cy="18" r="6" fill="#edc491"/><path d="M11 35V30Q23 21 35 30V35Z" fill="#789aaf"/><path d="M7 42H40M7 49H40M7 56H35"/></g>
<g id="page" stroke="#253742" stroke-width="2.5"><path d="M0 0H35L49 15V72H0Z" fill="#cee6ef"/><path d="M35 0V15H49" fill="#edf6f9"/><path d="M8 14H26M7 27H40M7 37H40M7 47H40M7 57H40M7 64H33" stroke-width="2"/></g>
<g id="progress"><use href="#page" transform="translate(0 0) scale(1)"/><circle cx="40" cy="61" r="15" fill="#60ae68" stroke="#316340" stroke-width="2.3"/><path d="M31 61L37 68L49 55" fill="none" stroke="#e7f6e5" stroke-width="5"/></g>
<g id="check-doc" stroke="#315843" stroke-width="2.5"><path d="M0 0H35L49 14V64H0Z" fill="#b9ddb0"/><path d="M35 0V14H49" fill="#e1efd8"/><path d="M7 17L12 22L20 12M7 34L12 39L20 29M7 51L12 56L20 46" fill="none" stroke-width="4"/><path d="M26 19H39M26 36H40M26 52H40"/><circle cx="42" cy="56" r="15" fill="#58a75b"/><path d="M33 55L39 62L51 49" stroke="#e6f1db" stroke-width="4" fill="none"/></g>
<g id="bulb" stroke="#30352e" stroke-width="2.6"><path d="M15 42C5 35 2 15 16 8C31 0 47 11 43 25C41 32 35 35 34 44Z" fill="#f8d261"/><path d="M19 45H33V55H19Z" fill="#6b8792"/><path d="M21 45V26L16 21M30 45V26L35 21M18 54H32M19 59H30M26 0V-8M3 8L-2 3M-4 24H3M8 42L2 48M45 41L50 46M47 23H54M44 7L49 1" fill="none"/></g>
<g id="chip" stroke="#242f32" stroke-width="2.5"><path d="M6 0V10M20 0V10M35 0V10M50 0V10M65 0V10M80 0V10M6 88V98M20 88V98M35 88V98M50 88V98M65 88V98M80 88V98M0 15H-10M0 31H-10M0 47H-10M0 63H-10M0 79H-10M86 15H96M86 31H96M86 47H96M86 63H96M86 79H96" stroke-width="4"/><rect x="0" y="10" width="86" height="78" rx="2" fill="#639890"/><use href="#brain" transform="translate(12 20) scale(1)"/></g>
<g id="globe" stroke="#193c53" stroke-width="2.3"><circle cx="40" cy="40" r="39" fill="#65abd8"/><ellipse cx="40" cy="40" rx="21" ry="39" fill="none"/><path d="M40 1V79M2 40H78M7 20Q40 30 73 20M7 60Q40 50 73 60" fill="none"/></g>
<g id="monitor" stroke="#26292c" stroke-width="2.5"><rect width="105" height="84" rx="2" fill="#33383e"/><path d="M0 13H105"/><path d="M1 1H104V12H1Z" fill="#d4d9da"/><circle cx="8" cy="6" r="2.5" fill="#d98970" stroke="none"/><circle cx="16" cy="6" r="2.5" fill="#d8c55c" stroke="none"/><circle cx="24" cy="6" r="2.5" fill="#66b787" stroke="none"/><path d="M10 26L6 31L10 36M29 26L33 31L29 36M23 23L16 39" fill="none" stroke="#76a4cd"/><path d="M23 46H49M31 53H73M38 60H63M29 67H90" stroke="#70b791"/><path d="M22 46H37M30 54H50" stroke="#d39280"/><path d="M46 39H58M59 46H69" stroke="#d3bd76"/></g>
<g id="pdf" stroke="#232529" stroke-width="2.4"><path d="M5 0H31L45 14V59H5Z" fill="white"/><path d="M31 0V14H45" fill="#eeeeee"/><rect x="0" y="23" width="45" height="19" rx="1" fill="#232529"/><text x="22" y="38" font-size="16" text-anchor="middle" fill="white" stroke="none" font-weight="bold">PDF</text></g>
<g id="python" stroke="none"><path d="M27 0H48Q60 0 60 14V29H29V35H9Q0 35 0 22V15Q0 6 12 6H27Z" fill="#3a82a9"/><path d="M34 39H13V52Q13 65 27 65H49V60H67Q77 60 77 45V37Q77 29 68 29H39V34H34Z" fill="#f1c449"/><circle cx="46" cy="9" r="3.5" fill="white"/><circle cx="29" cy="54" r="3.5" fill="white"/></g>
<g id="tools" fill="#111"><path d="M12 2L26 5L19 18L28 27L41 20L43 6L49 13L52 24L43 36L36 38L13 62Q7 67 2 61Q-2 56 4 51L29 28L22 21L10 21L2 13Z"/><path d="M38 3L57 10L51 21L43 16L35 26L62 52Q67 57 62 62Q58 65 54 60L28 33L19 44L12 39L26 22L32 18L27 12Z"/><circle cx="8" cy="58" r="2" fill="white"/></g>
<g id="cycle" fill="none" stroke="#111" stroke-width="4"><path d="M45 8C6-7-8 43 18 56M13 51L19 58L7 59M20 62C63 72 76 23 50 11M57 14L49 8L60 7"/></g>
<g id="success" fill="#111"><path d="M19 0H36L40 8L49 8L56 20L51 28L56 37L49 49L39 49L35 57H20L15 49H7L0 37L5 28L0 20L8 8H15Z"/><path d="M20 20L12 28L20 36M37 20L45 28L37 36M32 18L26 39" fill="none" stroke="white" stroke-width="4"/></g>
<g id="trophy" fill="#111"><path d="M12 0H55V11C55 28 49 39 39 42V53H49V64H17V54H28V42C17 36 12 26 12 11Z"/><path d="M12 7H0V19C0 32 9 40 21 40V32C10 31 7 27 7 18V14H12ZM55 7H68V19C68 32 58 40 47 40V32C58 31 61 27 61 18V14H55Z"/></g>
<g id="bar-chart" stroke="#292c30" stroke-width="2.4"><path d="M5 0V92H112" stroke-width="3.4" fill="none"/><path d="M7 20H108M7 43H108M7 66H108" stroke="#d0d0d0" stroke-width="1.5"/><rect x="15" y="55" width="15" height="36" fill="#74aace"/><rect x="35" y="63" width="15" height="28" fill="#e2947a"/><rect x="55" y="30" width="15" height="61" fill="#a3d78d"/><rect x="75" y="48" width="15" height="43" fill="#e89480"/><rect x="95" y="11" width="15" height="80" fill="#82c779"/></g>
<g id="evaluation" stroke="#292c30" stroke-width="2"><circle cx="26" cy="29" r="22" fill="#69a6cc"/><path d="M26 29V7A22 22 0 0 1 48 29Z" fill="#e4927a"/><circle cx="79" cy="45" r="22" fill="#83c96f"/><path d="M79 45V23A22 22 0 0 1 101 45Z" fill="#e58a78"/><path d="M79 45H101A22 22 0 0 1 95 60Z" fill="#77a4c7"/><path d="M5 69V96H61L51 78L42 89L31 77L20 86L11 79Z" fill="#b6d584"/><path d="M30 77L42 96H61L51 78L42 89Z" fill="#e8c483"/><path d="M66 94H100M71 94V85H77V94M81 94V76H87V94M91 94V67H98V94" fill="#8b8e8d"/><path d="M54 2H65M71 2H84M54 10H65M71 10H84M54 17H65M71 17H84"/></g>
<g id="edit-sheet" stroke="#222" stroke-width="2.5"><rect width="33" height="43" fill="white"/><path d="M5 7H24M5 17H15M12 23H27M5 32H23M9 38H27" stroke-width="3"/></g>
<g id="pencil" stroke="#222" stroke-width="2.5"><path d="M0 8L56 8L65 16L56 24L0 24Z" fill="#619ac0"/><path d="M55 9L66 16L55 24Z" fill="#e8c38d"/><path d="M64 13L69 16L64 20Z" fill="#222"/><path d="M5 8V24M9 9H52M10 22H52" fill="none"/></g>
</defs>

<rect width="1880" height="1110" fill="white"/>
<rect x="47" y="42" width="1810" height="1028" fill="none" stroke="#858585" stroke-width="3.5" stroke-dasharray="16 12"/>
<rect x="246" y="91" width="879" height="50" rx="5" fill="#efefef" stroke="none" stroke-width="2"/><rect x="1145" y="91" width="338" height="50" rx="5" fill="#efefef" stroke="none" stroke-width="2"/><rect x="1498" y="91" width="303" height="50" rx="5" fill="#efefef" stroke="none" stroke-width="2"/>
<text x="171" y="126" text-anchor="middle" font-size="26" font-weight="bold"><tspan x="171" dy="0">Phases</tspan></text><text x="685" y="126" text-anchor="middle" font-size="27" font-weight="normal"><tspan x="685" dy="0">Strategize &amp; Hypothesize</tspan></text><text x="1314" y="126" text-anchor="middle" font-size="27" font-weight="normal"><tspan x="1314" dy="0">Implement &amp; Verify</tspan></text><text x="1649" y="126" text-anchor="middle" font-size="27" font-weight="normal"><tspan x="1649" dy="0">Analyze &amp; Report</tspan></text>
<rect x="117" y="157" width="1685" height="385" rx="5" fill="#f8f8f8" stroke="none" stroke-width="2"/>
<rect x="117" y="582" width="470" height="437" rx="5" fill="white" stroke="#d5d5d5" stroke-width="2"/><rect x="604" y="582" width="656" height="437" rx="5" fill="white" stroke="#d5d5d5" stroke-width="2"/><rect x="1284" y="582" width="518" height="437" rx="5" fill="white" stroke="#d5d5d5" stroke-width="2"/>
<path d="M228 470V541L117 582M228 541L587 582M965 469V540L604 582M1109 469V540L1260 582M1470 504V543L1284 582M1470 543L1802 582" fill="none" stroke="#dedede" stroke-width="1.8"/>

<g id="connectors"><path id="scientist-to-memory-overview" d="M305 347H377" fill="none" stroke="#222" stroke-width="2.7" marker-end="url(#arrow-black)"/>
<path id="memory-to-scientist-overview" d="M377 379H305" fill="none" stroke="#222" stroke-width="2.7" marker-end="url(#arrow-black)"/>
<path id="memory-to-surrogate" d="M567 507V530H754V312H786" fill="none" stroke="#222" stroke-width="2.7" marker-end="url(#arrow-black)"/>
<path id="surrogate-to-acquisition" d="M916 311H954" fill="none" stroke="#222" stroke-width="2.7" marker-end="url(#arrow-black)"/>
<path id="acquisition-to-coder" d="M1192 311H1202" fill="none" stroke="#222" stroke-width="2.7" marker-end="url(#arrow-black)"/>
<path id="acquisition-to-candidate" d="M1036 362V402" fill="none" stroke="#222" stroke-width="2.7" marker-end="url(#arrow-black)"/>
<path id="coder-to-sandbox" d="M1284 323H1320" fill="none" stroke="#222" stroke-width="2.7" marker-end="url(#arrow-black)"/>
<path id="sandbox-to-logs" d="M1474 503V521H1627V324H1670" fill="none" stroke="#222" stroke-width="2.7" marker-end="url(#arrow-black)"/>
<path id="experimentation-to-analysis" d="M1344 517V652" fill="none" stroke="#222" stroke-width="2.7" marker-end="url(#arrow-black)"/>
<path id="human-to-scientist" d="M298 978H199V884" fill="none" stroke="#222" stroke-width="2.7" marker-end="url(#arrow-black)"/>
<path id="scientist-to-memory-detail" d="M250 786H288" fill="none" stroke="#222" stroke-width="2.7" marker-end="url(#arrow-black)"/>
<path id="memory-to-coder-detail" d="M577 787H617" fill="none" stroke="#222" stroke-width="2.7" marker-end="url(#arrow-black)"/>
<path id="coder-to-replace" d="M671 688V626H739" fill="none" stroke="#b6b6b6" stroke-width="2" marker-end="url(#arrow-gray)"/>
<path id="coder-to-edit" d="M713 786H737" fill="none" stroke="#b6b6b6" stroke-width="2" marker-end="url(#arrow-gray)"/>
<path id="replace-to-new-code" d="M878 625H989" fill="none" stroke="#b6b6b6" stroke-width="2" marker-end="url(#arrow-gray)"/>
<path id="edit-to-new-code" d="M868 786C930 770 908 635 986 625" fill="none" stroke="#b6b6b6" stroke-width="2" marker-end="url(#arrow-gray)"/>
<path id="new-code-to-candidate" d="M1044 625H1114" fill="none" stroke="#b6b6b6" stroke-width="2" marker-end="url(#arrow-gray)"/>
<path id="candidate-detail-output" d="M1223 625H1282" fill="none" stroke="#222" stroke-width="2.7" marker-end="url(#arrow-black)"/>
<path id="candidate-to-repair" d="M1110 679C1070 685 1045 710 1054 728" fill="none" stroke="#dca1a9" stroke-width="2" stroke-dasharray="3 6" marker-end="url(#arrow-pink)"/>
<path id="repair-to-candidate" d="M1081 742C1114 734 1137 706 1130 693" fill="none" stroke="#dca1a9" stroke-width="2" stroke-dasharray="3 6" marker-end="url(#arrow-pink)"/>
<path id="candidate-to-success" d="M1170 684V729" fill="none" stroke="#91bfaa" stroke-width="2" stroke-dasharray="3 6" marker-end="url(#arrow-green)"/>
<path id="success-to-scoring" d="M1163 840V870" fill="none" stroke="#91bfaa" stroke-width="2" stroke-dasharray="3 6" marker-end="url(#arrow-green)"/>
<path id="repair-to-reflection" d="M1018 840V861H959V952H927" fill="none" stroke="#dca1a9" stroke-width="2" stroke-dasharray="3 6" marker-end="url(#arrow-pink)"/>
<path id="scoring-to-reflection" d="M977 978H930" fill="none" stroke="#91bfaa" stroke-width="2" stroke-dasharray="3 6" marker-end="url(#arrow-green)"/>
<path id="reflection-to-coder" d="M691 966H662V901" fill="none" stroke="#b6b6b6" stroke-width="2" stroke-dasharray="3 6" marker-end="url(#arrow-gray)"/>
<path id="analysis-to-charts" d="M1395 737H1434V644H1477" fill="none" stroke="#222" stroke-width="2.7" marker-end="url(#arrow-black)"/>
<path id="analysis-to-synthesis" d="M1434 737V829H1477" fill="none" stroke="#222" stroke-width="2.7" marker-end="url(#arrow-black)"/>
<path id="evaluation-to-synthesis" d="M1622 749L1579 786" fill="none" stroke="#222" stroke-width="2.7" marker-end="url(#arrow-black)"/>
<path id="synthesis-to-tools" d="M1597 824H1658" fill="none" stroke="#222" stroke-width="2.7" marker-end="url(#arrow-black)"/>
<path id="logs-to-tools" d="M1789 425V822H1757" fill="none" stroke="#222" stroke-width="2.7" marker-end="url(#arrow-black)"/>
<path id="tools-to-paper" d="M1726 889V918" fill="none" stroke="#222" stroke-width="2.7" marker-end="url(#arrow-black)"/></g>
<g id="scientist-overview"><use href="#scientist" transform="translate(171 274) scale(0.96)"/><use href="#thought" transform="translate(268 225) scale(1.05)"/><text x="220" y="455" text-anchor="middle" font-size="27" font-weight="bold"><tspan x="220" dy="0">DeepScientist</tspan></text></g>
<g id="memory-overview"><rect x="397" y="180" width="340" height="332" rx="5" fill="#f7f7f7" stroke="#d7d7d7" stroke-width="2"/><rect x="386" y="169" width="340" height="332" rx="5" fill="#f6f6f6" stroke="#c9c9c9" stroke-width="2"/><text x="556" y="204" text-anchor="middle" font-size="28" font-weight="normal"><tspan x="556" dy="0">Findings Memory</tspan></text><g id="memory-overview-idea"><use href="#bulb" transform="translate(412 251) scale(0.9)"/><text x="566" y="273" text-anchor="middle" font-size="26" font-weight="normal"><tspan x="566" dy="0">Idea</tspan><tspan x="566" dy="28.6">Findings</tspan></text><use href="#profile" transform="translate(649 243) scale(0.92)"/></g><g id="memory-overview-implement"><use href="#check-doc" transform="translate(412 342) scale(0.9)"/><text x="566" y="364" text-anchor="middle" font-size="26" font-weight="normal"><tspan x="566" dy="0">Implement</tspan><tspan x="566" dy="28.6">Findings</tspan></text><use href="#profile" transform="translate(649 334) scale(0.92)"/></g><g id="memory-overview-progress"><use href="#progress" transform="translate(412 438) scale(0.9)"/><text x="566" y="460" text-anchor="middle" font-size="26" font-weight="normal"><tspan x="566" dy="0">Progress</tspan><tspan x="566" dy="28.6">Findings</tspan></text><use href="#profile" transform="translate(649 430) scale(0.92)"/></g></g>
<g id="surrogate-model"><use href="#chip" transform="translate(808 260) scale(1)"/><text x="852" y="386" text-anchor="middle" font-size="27" font-weight="normal"><tspan x="852" dy="0">Surrogate</tspan><tspan x="852" dy="29.700000000000003">Model</tspan></text></g>
<g id="acquisition-function"><text x="1032" y="233" text-anchor="middle" font-size="25" font-weight="normal"><tspan x="1032" dy="0">Acquisition</tspan><tspan x="1032" dy="27.500000000000004">Function</tspan><tspan x="1032" dy="27.500000000000004">(UCB)</tspan></text><text x="1012" y="322" text-anchor="end" font-size="22" font-weight="normal"><tspan x="1012" dy="0">Score</tspan></text><text x="1012" y="347" text-anchor="end" font-size="22" font-weight="normal"><tspan x="1012" dy="0">Score</tspan></text><rect x="1021" y="306" width="52" height="16" rx="0" fill="#f5d16a" stroke="#272727" stroke-width="2"/><rect x="1021" y="333" width="76" height="16" rx="0" fill="#80c374" stroke="#272727" stroke-width="2"/></g>
<g id="top-candidate-overview"><text x="1141" y="300" text-anchor="middle" font-size="21" font-weight="normal"><tspan x="1141" dy="0">Top</tspan><tspan x="1141" dy="23.1">Candidate</tspan></text></g>
<g id="top-candidate-callout"><rect x="963" y="408" width="146" height="65" rx="5" fill="#efefef" stroke="none" stroke-width="2"/><text x="1036" y="437" text-anchor="middle" font-size="25" font-weight="normal"><tspan x="1036" dy="0">Top</tspan><tspan x="1036" dy="27.500000000000004">Candidate</tspan></text></g>
<g id="coding-agent-overview"><use href="#agent" transform="translate(1208 258) scale(0.81)" color="#5aa465"/><text x="1244" y="410" text-anchor="middle" font-size="27" font-weight="normal"><tspan x="1244" dy="0">Coding</tspan><tspan x="1244" dy="29.700000000000003">Agent</tspan></text></g>
<g id="sandbox"><rect x="1336" y="169" width="272" height="333" rx="5" fill="#f4f4f4" stroke="#c9c9c9" stroke-width="2"/><text x="1472" y="192" text-anchor="middle" font-size="23" font-weight="normal"><tspan x="1472" dy="0">Sandboxed Environment</tspan></text><g id="code-terminal"><use href="#monitor" transform="translate(1353 211) scale(1)"/></g><g id="sandbox-globe"><use href="#globe" transform="translate(1510 213) scale(1)"/></g><path id="terminal-to-globe" d="M1470 253H1500" fill="none" stroke="#222" stroke-width="2.7" marker-end="url(#arrow-black)"/><path id="globe-to-terminal" d="M1500 253H1470" fill="none" stroke="#222" stroke-width="2.7" marker-end="url(#arrow-black)"/><g id="code-implementation"><rect x="1376" y="304" width="215" height="65" rx="5" fill="#ececec" stroke="none" stroke-width="2"/><text x="1484" y="331" text-anchor="middle" font-size="27" font-weight="normal"><tspan x="1484" dy="0">Code</tspan><tspan x="1484" dy="29.700000000000003">Implementation</tspan></text></g><path id="experiment-to-code" d="M1451 388H1373V302" fill="none" stroke="#222" stroke-width="2.7" marker-end="url(#arrow-black)"/><path id="code-to-experiment" d="M1523 374C1544 402 1537 416 1519 423" fill="none" stroke="#222" stroke-width="2.7" marker-end="url(#arrow-black)"/><g id="experimentation"><use href="#page" transform="translate(1437 391) scale(1)"/><use href="#globe" transform="translate(1474 424) scale(0.43)"/><text x="1472" y="482" text-anchor="middle" font-size="26" font-weight="normal"><tspan x="1472" dy="0">Experimentation</tspan></text></g></g>
<g id="experiment-logs"><use href="#profile" transform="translate(1702 265) scale(1.1)"/><use href="#profile" transform="translate(1691 273) scale(1.1)"/><use href="#profile" transform="translate(1680 281) scale(1.1)"/><text x="1718" y="384" text-anchor="middle" font-size="27" font-weight="normal"><tspan x="1718" dy="0">Experiment</tspan><tspan x="1718" dy="29.700000000000003">Logs &amp; Results</tspan></text></g>
<g id="strategy-detail"><g id="scientist-detail"><use href="#scientist" transform="translate(165 709) scale(0.79)"/><use href="#thought" transform="translate(238 701) scale(0.82)"/><text x="206" y="862" text-anchor="middle" font-size="25" font-weight="normal"><tspan x="206" dy="0">DeepScientist</tspan></text></g><g id="memory-detail"><rect x="303.83235294117645" y="604.8323529411765" width="273" height="340" rx="5" fill="#f7f7f7" stroke="#d7d7d7" stroke-width="2"/><rect x="295" y="596" width="273" height="340" rx="5" fill="#f6f6f6" stroke="#c9c9c9" stroke-width="2"/><text x="431.5" y="624.1029411764706" text-anchor="middle" font-size="25" font-weight="normal"><tspan x="431.5" dy="0">Findings Memory</tspan></text><g id="memory-detail-idea"><use href="#bulb" transform="translate(315.8764705882353 661.8411764705883) scale(0.7226470588235294)"/><text x="439.52941176470586" y="679.5058823529412" text-anchor="middle" font-size="23" font-weight="normal"><tspan x="439.52941176470586" dy="0">Idea</tspan><tspan x="439.52941176470586" dy="25.3">Findings</tspan></text><use href="#profile" transform="translate(506.1735294117647 655.4176470588235) scale(0.7387058823529412)"/></g><g id="memory-detail-implement"><use href="#check-doc" transform="translate(315.8764705882353 734.9088235294117) scale(0.7226470588235294)"/><text x="439.52941176470586" y="752.5735294117648" text-anchor="middle" font-size="23" font-weight="normal"><tspan x="439.52941176470586" dy="0">Implement</tspan><tspan x="439.52941176470586" dy="25.3">Findings</tspan></text><use href="#profile" transform="translate(506.1735294117647 728.4852941176471) scale(0.7387058823529412)"/></g><g id="memory-detail-progress"><use href="#progress" transform="translate(315.8764705882353 811.9911764705882) scale(0.7226470588235294)"/><text x="439.52941176470586" y="829.6558823529411" text-anchor="middle" font-size="23" font-weight="normal"><tspan x="439.52941176470586" dy="0">Progress</tspan><tspan x="439.52941176470586" dy="25.3">Findings</tspan></text><use href="#profile" transform="translate(506.1735294117647 805.5676470588235) scale(0.7387058823529412)"/></g></g><g id="human-input"><use href="#page" transform="translate(314 947) scale(0.83)"/><text x="407" y="990" text-anchor="middle" font-size="25" font-weight="normal"><tspan x="407" dy="0">Human</tspan></text></g></g>
<g id="implementation-detail"><g id="coding-agent-detail"><use href="#agent" transform="translate(633 692) scale(0.76)" color="#55a577"/><text x="671" y="849" text-anchor="middle" font-size="27" font-weight="normal"><tspan x="671" dy="0">Coding</tspan><tspan x="671" dy="29.700000000000003">Agent</tspan></text></g>
<g id="replace"><rect x="742" y="598" width="125" height="52" rx="5" fill="#252a31" stroke="none" stroke-width="2"/><text fill="white" x="805" y="631" text-anchor="middle" font-size="24" font-weight="normal"><tspan x="805" dy="0">REPLACE</tspan></text></g>
<g id="edit"><rect x="738" y="760" width="130" height="53" rx="5" fill="#252a31" stroke="none" stroke-width="2"/><text fill="white" x="803" y="795" text-anchor="middle" font-size="25" font-weight="normal"><tspan x="803" dy="0">EDIT</tspan></text></g>
<g id="old-code"><use href="#pdf" transform="translate(740 666) scale(0.8)"/><text x="765" y="729" text-anchor="middle" font-size="21" font-weight="normal"><tspan x="765" dy="0">old code</tspan></text></g>
<g id="replacement-code"><use href="#pdf" transform="translate(831 666) scale(0.8)"/><text x="865" y="729" text-anchor="middle" font-size="21" font-weight="normal"><tspan x="865" dy="0">new code</tspan></text></g>
<g id="new-code"><use href="#pdf" transform="translate(994 604) scale(0.86)"/><text x="1018" y="674" text-anchor="middle" font-size="21" font-weight="normal"><tspan x="1018" dy="0">new code</tspan></text></g>
<g id="candidate-code"><use href="#python" transform="translate(1143 602) scale(0.69)"/><text x="1174" y="675" text-anchor="middle" font-size="25" font-weight="normal"><tspan x="1174" dy="0">i candidate</tspan></text></g>
<g id="line-edits"><use href="#edit-sheet" transform="translate(744 835) scale(1)"/><use href="#edit-sheet" transform="translate(800 835) scale(1)"/><path d="M806 864L829 839L835 846L812 870H806Z" fill="#222"/><text x="784" y="905" text-anchor="middle" font-size="21" font-weight="normal"><tspan x="784" dy="0">line edits</tspan></text></g>
<g id="old-report"><use href="#pdf" transform="translate(856 833) scale(0.83)"/><text x="892" y="905" text-anchor="middle" font-size="21" font-weight="normal"><tspan x="892" dy="0">old report</tspan></text></g>
<g id="code-repair"><use href="#tools" transform="translate(967 751) scale(0.83)"/><use href="#cycle" transform="translate(1028 750) scale(0.9)"/><text x="1029" y="827" text-anchor="middle" font-size="21" font-weight="normal"><tspan x="1029" dy="0">code repair (x3)</tspan></text></g>
<g id="code-success"><use href="#success" transform="translate(1149 752) scale(0.83)"/><text x="1178" y="827" text-anchor="middle" font-size="21" font-weight="normal"><tspan x="1178" dy="0">code succeeds</tspan></text></g>
<g id="self-reflection"><rect x="693" y="932" width="231" height="68" rx="5" fill="#efefef" stroke="none" stroke-width="2"/><text x="808" y="976" text-anchor="middle" font-size="27" font-weight="normal"><tspan x="808" dy="0">Self-Reflection</tspan></text></g>
<g id="program-scoring"><rect x="982" y="880" width="230" height="120" rx="5" fill="#efefef" stroke="none" stroke-width="2"/><use href="#trophy" transform="translate(1028 902) scale(0.65)"/><text x="1132" y="921" text-anchor="middle" font-size="22" font-weight="normal"><tspan x="1132" dy="0">reward</tspan><tspan x="1132" dy="24.200000000000003">function</tspan></text><text x="1096" y="984" text-anchor="middle" font-size="26" font-weight="normal"><tspan x="1096" dy="0">Program Scoring</tspan></text></g></g>
<g id="analysis-detail"><g id="analysis-agent"><use href="#agent" transform="translate(1310 654) scale(0.77)" color="#4ca4b4"/><text x="1345" y="801" text-anchor="middle" font-size="27" font-weight="normal"><tspan x="1345" dy="0">Analysis</tspan><tspan x="1345" dy="29.700000000000003">Agent</tspan></text></g>
<g id="experiment-charts"><use href="#bar-chart" transform="translate(1494 602) scale(0.99)"/><text x="1544" y="720" text-anchor="middle" font-size="25" font-weight="normal"><tspan x="1544" dy="0">Experiment</tspan><tspan x="1544" dy="27.500000000000004">Charts</tspan></text></g>
<g id="ablation-evaluations"><use href="#evaluation" transform="translate(1650 600) scale(1.07)"/><text x="1720" y="719" text-anchor="middle" font-size="25" font-weight="normal"><tspan x="1720" dy="0">Ablations &amp;</tspan><tspan x="1720" dy="27.500000000000004">Evaluations</tspan></text></g>
<g id="synthesis-agent"><use href="#agent" transform="translate(1485 774) scale(0.79)" color="#75799d"/><use href="#pencil" transform="translate(1530 837) rotate(-47) scale(1.15)"/><text x="1523" y="926" text-anchor="middle" font-size="27" font-weight="normal"><tspan x="1523" dy="0">Synthesis</tspan><tspan x="1523" dy="29.700000000000003">Agent</tspan></text></g>
<g id="mcp-tools"><use href="#tools" transform="translate(1685 780) scale(1.12)"/><text x="1719" y="880" text-anchor="middle" font-size="27" font-weight="normal"><tspan x="1719" dy="0">MCP Tools</tspan></text></g>
<g id="research-paper"><rect x="1595" y="923" width="185" height="80" rx="5" fill="#efefef" stroke="none" stroke-width="2"/><use href="#pdf" transform="translate(1611 936) scale(1)"/><text x="1722" y="954" text-anchor="middle" font-size="25" font-weight="normal"><tspan x="1722" dy="0">Research</tspan><tspan x="1722" dy="27.500000000000004">Paper</tspan></text></g></g>
</svg>
